<?xml version="1.0" encoding="UTF-8" standalone="no"?>
<!-- Created with Inkscape (http://www.inkscape.org/) -->

<svg
   width="200"
   height="200"
   viewBox="0 0 52.916665 52.916666"
   version="1.1"
   id="svg5"
   inkscape:version="1.2.2 (b0a8486541, 2022-12-01)"
   sodipodi:docname="logo.svg"
   xmlns:inkscape="http://www.inkscape.org/namespaces/inkscape"
   xmlns:sodipodi="http://sodipodi.sourceforge.net/DTD/sodipodi-0.dtd"
   xmlns:xlink="http://www.w3.org/1999/xlink"
   xmlns="http://www.w3.org/2000/svg"
   xmlns:svg="http://www.w3.org/2000/svg">
  <sodipodi:namedview
     id="namedview7"
     pagecolor="#ffffff"
     bordercolor="#000000"
     borderopacity="0.25"
     inkscape:showpageshadow="2"
     inkscape:pageopacity="0.0"
     inkscape:pagecheckerboard="0"
     inkscape:deskcolor="#d1d1d1"
     inkscape:document-units="mm"
     showgrid="false"
     inkscape:zoom="3.0075196"
     inkscape:cx="168.90995"
     inkscape:cy="99.749972"
     inkscape:window-width="1920"
     inkscape:window-height="1029"
     inkscape:window-x="0"
     inkscape:window-y="27"
     inkscape:window-maximized="1"
     inkscape:current-layer="layer1" />
  <defs
     id="defs2">
    <symbol
       viewBox="0 0 64 64"
       id="emoji-1f4dd">
      <title
         id="title47232">1f4dd</title>
      <path
         fill="#efd8b1"
         d="m 0,20.3 c 0,0 28.19,29.946 31.16,43.7 0,0 8.06,-17.928 32.836,-25.368 0,0 -8.782,-20.643 -32.19,-37 0,0 -23.917,7.129 -31.811,18.668"
         id="path47234" />
      <path
         fill="#fff6d7"
         d="m 3.171,7.876 c 0,0 21.98,38.16 22.399,52.47 0,0 11.04,-14.801 36.427,-14.03 0,0 -4.814,-22.868 -24.598,-46.3 10e-4,0 -24.493,-0.796 -34.23,7.856"
         id="path47236" />
      <g
         fill="#7d8b91"
         id="g47254">
        <path
           d="m 19.885,9.392 c -0.255,0.404 0.255,-0.402 0,0"
           id="path47238" />
        <path
           d="m 19.885,9.392 c 0.193,-0.304 0.254,-0.83 0.555,-1.058 0.384,-0.288 0.842,-0.125 1.21,-0.391 0.764,-0.552 1.183,-1.639 1.895,-2.289 0.822,-0.75 1.823,-1.255 2.865,-1.626 1.054,-0.416 2.156,-1.223 3.338,-1.157 -0.452,1.545 -1.521,2.832 -1.745,4.456 -0.121,0.876 0.016,1.804 0.067,2.682 0.204,-0.662 0.351,-1.384 0.647,-2.01 0.412,-0.875 1.268,-0.778 2.07,-1.075 0.836,-0.396 1.495,-1.061 2.174,-1.671 0.274,0.476 1.378,-0.342 1.574,0.39 C 34.62,5.958 37.373,5.579 37.578,5.48 37.012,5.448 34.868,5.59 34.776,5.062 34.468,4.921 33.925,4.855 33.43,4.818 33.452,4.611 33.411,4.345 33.478,4.153 c -0.617,0.44 -1.185,0.938 -1.785,1.401 -0.889,0.687 -2.028,0.539 -2.867,1.155 0.336,-1.013 0.949,-1.901 1.336,-2.893 0.169,-0.433 0.283,-0.877 0.355,-1.336 0.067,-0.426 0.028,-0.212 -0.259,-0.4 -1.35,-0.362 -2.841,0.683 -4.02,1.237 -1.081,0.455 -2.108,1.058 -2.94,1.893 -0.51,0.512 -1.3,2.336 -1.982,2.5 -1.363,0.037 -0.947,1.262 -1.819,1.696 -0.453,0.225 -0.836,0.195 -1.27,0.531 -0.547,0.426 -1.221,1.061 -1.97,1.023 0.02,-0.632 0.031,-1.243 -0.234,-1.833 -0.755,0.376 -1.144,1.098 -1.758,1.631 0.218,-1.566 0.88,-2.949 0.901,-4.564 -0.859,0.575 -1.438,1.302 -1.913,2.218 -0.575,1.109 -1.088,2.892 -2.286,3.49 -0.023,-1.538 0.654,-3.01 0.469,-4.558 -0.19,0.671 -0.234,1.63 -0.443,2.403 -0.248,0.919 -0.431,1.821 -0.375,2.778 2.154,-0.314 2.621,-3.547 3.886,-4.929 -0.254,1.442 -0.837,2.711 -0.72,4.208 0.896,-0.541 1.284,-1.485 2.096,-2.093 0.283,0.902 -0.354,2.087 1.071,1.429 0.628,-0.291 1.087,-0.823 1.66,-1.194 0.407,-0.26 0.982,-0.093 1.271,-0.551"
           id="path47240" />
        <path
           d="m 41.44,13.837 c -0.399,-0.35 -1.126,-0.467 -1.587,-0.899 -0.556,-0.522 -1.553,-0.274 -2.204,-0.122 -1.632,0.381 -2.694,0.836 -4.231,-0.029 0.006,0.489 0.087,2.534 -0.697,2.406 -0.735,-0.012 -0.523,-2.098 -0.587,-2.753 -0.356,0.57 -0.745,1.08 -0.745,1.787 0,0.523 0.223,0.836 -0.224,1.259 -0.555,0.526 -1.506,0.401 -2.188,0.303 -0.163,-1.134 0.121,-2.434 0.196,-3.575 -0.235,1.019 -0.471,2.038 -0.707,3.058 -0.175,0.756 -0.851,0.909 -1.534,0.706 -0.134,-0.177 0.066,-1.024 0.08,-1.234 -0.616,1.14 -1.01,2.485 -1.788,3.517 -0.363,0.479 -1.292,0.982 -1.682,0.211 -0.273,-0.541 -0.116,-1.248 -0.039,-1.823 -0.456,0.586 -0.95,2.315 -1.826,2.279 0.105,-0.425 0.444,-0.773 -0.061,-1.03 -0.233,0.446 -0.431,0.93 -0.654,1.386 0.242,-0.638 0.383,-1.289 0.516,-1.955 -1.322,0.787 -2.125,1.895 -2.836,3.242 0.039,-0.242 0.091,-0.722 0.061,-0.891 -0.107,0.436 -0.899,1.922 -0.417,2.186 0.707,-1.125 1.306,-2.331 2.337,-3.205 -0.549,1.468 -1.132,2.779 -1.423,4.327 0.636,-0.741 1.238,-1.466 1.684,-2.346 0.145,-0.287 0.28,-0.578 0.405,-0.873 0.324,-0.753 0.312,-0.19 0.864,-0.589 0.531,-0.379 0.767,-1.113 1.063,-1.665 -0.07,1.754 1.435,2.072 2.399,0.71 0.395,-0.557 0.667,-1.187 0.971,-1.794 0.019,-0.009 0.78,0.235 0.848,0.242 0.361,0.035 0.684,-0.027 0.972,-0.25 1.127,0.394 2.842,0.458 3.521,-0.768 1.233,1.3 2,-0.721 2.072,-1.713 1.214,0.452 2.337,-0.088 3.477,-0.497 0.654,-0.235 1.98,-0.777 2.461,0.035 0.493,0.179 1,0.216 1.503,0.357"
           id="path47242" />
        <path
           d="m 30.812,24.09 c 0.024,0.009 0.051,0.01 0.076,0.018 -0.004,-0.01 -0.077,-0.043 -0.076,-0.018"
           id="path47244" />
        <path
           d="m 30.812,24.09 c -0.005,-0.359 -0.336,-0.601 -0.69,-0.32 -0.456,0.36 -0.207,-0.309 -0.175,-0.682 0.039,-0.453 0.078,-0.906 0.117,-1.358 -0.227,0.406 -0.487,0.806 -0.686,1.226 -0.385,0.684 -0.266,1.966 -1.329,2.092 0.155,-0.502 0.296,-1 0.43,-1.511 -0.547,0.463 -1.104,0.796 -1.128,1.585 -0.031,0.975 -1.018,3.364 -2.313,3.114 0.113,-1.97 1.214,-3.788 1.652,-5.701 -2.02,1.212 -3.72,4.154 -3.949,6.432 1.026,-1.652 1.701,-3.584 3.095,-4.983 -0.357,1.479 -0.902,2.897 -1.027,4.425 -0.021,0.262 0.777,0.115 0.892,0.078 0.693,-0.226 1.189,-0.901 1.538,-1.504 0.136,-0.237 0.26,-0.481 0.371,-0.731 0.279,-0.625 0.385,-0.221 0.948,-0.473 0.679,-0.303 0.72,-1.179 1.38,-1.098 0.727,0.09 2.235,-0.079 2.722,-0.408 -0.58,-0.065 -1.206,0.006 -1.771,-0.167 0,0.006 -0.012,0.007 -0.077,-0.016 m -0.524,-0.353 c 0.053,0.058 0.129,0.081 0.156,0.167 -0.052,-0.056 -0.105,-0.111 -0.156,-0.167"
           id="path47246" />
        <path
           d="m 44.09,42.4 c 0.501,-0.703 -0.232,-0.094 0,0"
           id="path47248" />
        <path
           d="m 42.21,44.584 c 0.012,-0.01 0.021,-0.022 0.033,-0.033 -0.045,0.038 -0.09,0.077 -0.126,0.109 0.03,-0.025 0.064,-0.051 0.093,-0.076"
           id="path47250" />
        <path
           d="m 58.44,39.652 c -1.814,-1.329 -3.897,-2.099 -5.856,-3.188 0.44,0.622 1.02,1.253 1.286,1.976 -1.048,0.097 -0.896,1.859 -1.027,1.871 -0.478,-0.341 -1.857,0.007 -2.502,0.086 0.02,-0.111 0.04,-0.223 0.06,-0.334 -1.85,1.225 -3.256,2.968 -5.688,2.517 1.097,-1.689 2.04,-3.597 1.897,-5.659 -1.756,0.627 -2.79,2.343 -3.572,3.934 -0.168,-0.621 -0.974,-1.128 -1.534,-0.634 -0.633,0.53 -0.881,1.479 -1.102,2.236 -0.271,0.927 -0.434,1.883 -0.487,2.847 -0.037,0.659 -0.138,0.809 0.595,0.791 1.691,-0.039 3.168,-1.957 4.02,-3.223 2.171,0.589 3.497,-0.449 5.202,-1.607 0.036,0.786 0.595,1.298 1.381,1.138 0.794,-0.184 1.151,-1.192 1.776,-1.232 0.459,-0.029 0.751,0.202 1.264,0.189 0.543,-0.018 1.084,-0.097 1.623,-0.158 -0.558,-0.733 -0.786,-1.162 -1.021,-2.125 1.281,0.343 2.361,0.611 3.687,0.575 m -16.2,4.899 c 0.144,-0.123 0.266,-0.228 -0.033,0.033 -0.219,0.187 -0.187,0.157 -0.093,0.076 -0.506,0.423 -1.122,0.882 -1.806,0.864 -0.001,-1.491 0.17,-3.294 0.943,-4.607 0.379,-0.644 0.921,-0.836 1.473,-0.255 0.394,0.436 -0.079,0.828 -0.095,1.215 0.098,-0.18 0.199,-0.356 0.305,-0.532 0.118,0.628 0.408,1.012 0.987,1.299 -0.498,0.685 -1.044,1.345 -1.681,1.907 M 44.095,42.4 c -2.405,-0.984 0.735,-4.079 2.067,-4.678 -0.148,1.698 -1.098,3.319 -2.067,4.678 m 6.918,-0.756 c -0.821,0.222 -0.813,-0.562 -0.691,-1.126 0.521,0.175 1.04,0.357 1.564,0.522 -0.217,0.279 -0.527,0.516 -0.873,0.604 m 2.668,-0.695 0.045,-0.145 c -0.019,0.151 -0.035,0.111 -0.045,0.145 m 0.185,-0.604 c 0.06,-0.114 0.08,-0.26 0.118,-0.384 -0.255,0.111 -0.519,0.216 -0.787,0.289 -0.021,-0.334 -0.095,-1.054 0.294,-1.244 0.796,-0.421 0.751,0.866 0.926,1.368 -0.184,-0.01 -0.367,-0.02 -0.551,-0.029 m 0.913,-1.836 c -0.063,-0.007 -0.126,-0.018 -0.189,-0.027 -0.054,-0.119 0.009,-0.11 0.189,0.027"
           id="path47252" />
      </g>
      <path
         fill="#ffce31"
         d="M 35.610113,20.818439 51.763975,4.6691448 59.33241,12.239721 43.178548,28.389015 Z"
         id="path47256"
         style="stroke-width:0.99999" />
      <path
         fill="#ed4c5c"
         d="M 62.63,2.332 61.668,1.369 c -1.826,-1.824 -4.781,-1.823 -6.607,0 l -3.3,3.303 7.568,7.568 3.301,-3.302 c 1.825,-1.824 1.824,-4.781 0,-6.606"
         id="path47258" />
      <path
         fill="#93a2aa"
         d="m 49.695819,6.7393364 2.065731,-2.065147 7.567728,7.5698686 -2.065731,2.065147 z"
         id="path47260"
         style="stroke-width:0.99999" />
      <path
         fill="#c7d3d8"
         d="m 50.503557,7.5532472 2.065439,-2.0654391 5.948833,5.9488319 -2.06544,2.06544 z"
         id="path47262"
         style="stroke-width:0.99999" />
      <path
         fill="#fed0ac"
         d="m 35.609,20.822 -3.279,8.583 2.257,2.269 8.593,-3.282 z"
         id="path47264" />
      <path
         fill="#333333"
         d="m 31.753,30.903 c -0.453,1.193 0.151,1.796 1.342,1.341 l 4.166,-1.591 -3.912,-3.914 -1.596,4.164"
         id="path47266" />
      <path
         fill="#ffdf85"
         d="M 49.695348,6.7358981 52.217574,9.2581238 38.130727,23.34497 35.608502,20.822744 Z"
         id="path47268"
         style="stroke-width:0.99999" />
      <path
         fill="#ff8736"
         d="m 54.745614,11.782367 2.52329,2.522576 -14.084854,14.088839 -2.52329,-2.522576 z"
         id="path47270"
         style="stroke-width:0.99999" />
    </symbol>
    <symbol
       viewBox="0 0 64 64"
       id="emoji-1f4d2">
      <title
         id="title46623">1f4d2</title>
      <path
         fill="#3e4347"
         d="m 44.21,1.537 -14.63,60.64 29.396,-8.01 c 3.295,-0.924 5.229,-4.3 4.32,-7.539 L 51.821,5.732 C 50.913,2.493 47.505,0.616 44.21,1.541"
         id="path46625" />
      <path
         fill="#e9f3fa"
         d="m 41.837,0.901 -12.258,61.27 29.16,-9.293 c 3.254,-1.059 5.05,-4.51 4.01,-7.709 L 49.619,4.769 C 48.579,1.57 45.097,-0.166 41.843,0.892"
         id="path46627" />
      <path
         fill="#d3976e"
         d="m 39.791,0.381 -27.66,10.07 -4.366,1.59 c -3.216,1.17 -3.296,3.02 -2.146,6.183 L 21.188,61 c 1.15,3.162 2.056,3.574 5.271,2.404 l 4.367,-1.59 27.659,-10.07 c 3.216,-1.172 4.89,-4.684 3.739,-7.846 L 47.698,3.986 C 46.547,0.825 43.007,-0.789 39.791,0.381"
         id="path46629" />
      <g
         fill="#3e4347"
         id="g46647">
        <circle
           cx="8.6210003"
           cy="14.936"
           r="1.609"
           id="circle46631" />
        <circle
           cx="10.843"
           cy="21.040001"
           r="1.609"
           id="circle46633" />
        <circle
           cx="13.04"
           cy="27.08"
           r="1.609"
           id="circle46635" />
        <circle
           cx="15.237"
           cy="33.119999"
           r="1.609"
           id="circle46637" />
        <path
           d="M 10.362,31.23 C 10.102,30.517 10.135,29.64 9.331,29.881 8.206,30.22 6.919,30.461 6.095,29.601 5.794,29.287 5.236,29.318 5.069,29.757 4.83,30.383 5.503,31.098 5.997,31.371 7.304,32.092 9.045,31.7 10.362,31.23 M 6.286,29.895 c 0.037,0.073 0,-0.002 0,0"
           id="path46639" />
        <path
           d="M 8.166,25.19 C 8.059,24.897 7.952,24.604 7.846,24.31 7.634,23.729 7.792,23.641 7.135,23.84 6.01,24.18 4.723,24.42 3.9,23.561 3.599,23.247 3.041,23.277 2.874,23.717 c -0.239,0.626 0.434,1.342 0.928,1.615 1.304,0.72 3.048,0.327 4.364,-0.142 M 4.089,23.855 c 0.033,0.047 0.01,0.016 0,0"
           id="path46641" />
        <path
           d="M 5.969,19.16 C 5.863,18.867 5.756,18.574 5.649,18.28 5.438,17.699 5.595,17.611 4.939,17.81 3.813,18.151 2.528,18.388 1.704,17.53 1.403,17.217 0.845,17.247 0.677,17.686 c -0.24,0.626 0.435,1.342 0.928,1.615 1.304,0.722 3.047,0.327 4.364,-0.141 M 1.893,17.824 c 0.038,0.072 0,-0.003 0,0"
           id="path46643" />
        <path
           d="M 12.56,37.27 C 12.453,36.977 12.346,36.683 12.24,36.39 12.028,35.809 12.186,35.72 11.529,35.919 10.404,36.26 9.117,36.498 8.294,35.641 7.993,35.327 7.435,35.358 7.268,35.797 7.029,36.423 7.702,37.139 8.196,37.411 9.5,38.132 11.244,37.739 12.56,37.27 M 8.482,35.934 c 0.039,0.077 0,-0.007 0,0"
           id="path46645" />
      </g>
      <g
         fill="#94989b"
         id="g46657">
        <path
           d="M 12.511,27.27 C 11.973,25.91 6.57,28.11 6.17,29.633 6.198,29.542 6.201,29.554 6.179,29.67 6.188,29.638 6.186,29.607 6.173,29.576 c 0.399,1.21 -1.369,1.263 -1.298,-0.283 0.081,-1.749 2.168,-2.812 3.571,-3.333 1.306,-0.484 3.066,-0.858 4.365,-0.141 1.855,1.025 0.231,2.774 -0.3,1.451"
           id="path46649" />
        <path
           d="M 10.314,21.237 C 9.771,19.879 4.365,22.073 3.973,23.6 4,23.509 4.003,23.521 3.982,23.638 3.991,23.606 3.989,23.575 3.976,23.544 4.374,24.755 2.607,24.807 2.678,23.261 2.758,21.512 4.847,20.45 6.25,19.93 c 1.305,-0.485 3.066,-0.858 4.365,-0.142 1.856,1.023 0.229,2.771 -0.301,1.449"
           id="path46651" />
        <path
           d="M 8.118,15.201 C 7.574,13.84 2.176,16.041 1.776,17.564 1.804,17.473 1.807,17.485 1.785,17.601 1.796,17.569 1.794,17.538 1.78,17.507 2.178,18.719 0.411,18.77 0.481,17.224 0.561,15.475 2.65,14.413 4.052,13.892 5.358,13.407 7.119,13.034 8.418,13.75 c 1.855,1.025 0.23,2.774 -0.3,1.451"
           id="path46653" />
        <path
           d="M 14.708,33.31 C 14.16,31.952 8.763,34.147 8.367,35.673 8.394,35.581 8.397,35.594 8.376,35.71 8.385,35.679 8.383,35.647 8.37,35.616 8.768,36.827 7.001,36.88 7.072,35.334 c 0.08,-1.749 2.17,-2.812 3.572,-3.333 1.304,-0.485 3.067,-0.857 4.365,-0.142 1.854,1.023 0.228,2.774 -0.301,1.451"
           id="path46655" />
      </g>
      <g
         fill="#d0d0d0"
         id="g46667">
        <path
           d="m 8.804,26.944 c -0.831,0.311 -1.627,0.721 -2.311,1.326 -0.306,0.271 -0.936,0.861 -0.738,1.461 0.097,0.294 -0.262,0.426 -0.358,0.13 -0.242,-0.736 0.221,-1.343 0.599,-1.755 0.72,-0.783 1.696,-1.263 2.644,-1.613 0.229,-0.086 0.394,0.367 0.164,0.451"
           id="path46659" />
        <path
           d="m 6.606,20.909 c -0.83,0.309 -1.627,0.72 -2.31,1.326 -0.306,0.271 -0.936,0.86 -0.738,1.461 0.097,0.294 -0.262,0.426 -0.359,0.13 -0.241,-0.737 0.222,-1.343 0.599,-1.756 0.72,-0.782 1.697,-1.262 2.644,-1.614 0.231,-0.084 0.396,0.368 0.164,0.453"
           id="path46661" />
        <path
           d="M 4.41,14.875 C 3.579,15.183 2.783,15.594 2.099,16.199 1.794,16.47 1.164,17.06 1.361,17.66 c 0.097,0.294 -0.262,0.426 -0.358,0.131 -0.242,-0.738 0.221,-1.343 0.599,-1.755 0.72,-0.783 1.697,-1.262 2.644,-1.614 0.23,-0.086 0.395,0.367 0.164,0.453"
           id="path46663" />
        <path
           d="M 11,32.98 C 10.169,33.289 9.373,33.7 8.69,34.306 8.383,34.577 7.754,35.166 7.951,35.767 8.048,36.061 7.69,36.193 7.593,35.898 7.352,35.162 7.814,34.554 8.192,34.143 8.912,33.359 9.889,32.88 10.836,32.528 11.065,32.442 11.23,32.895 11,32.98"
           id="path46665" />
      </g>
      <g
         fill="#3e4347"
         id="g46685">
        <circle
           cx="17.464001"
           cy="39.23"
           r="1.609"
           id="circle46669" />
        <circle
           cx="19.688"
           cy="45.34"
           r="1.609"
           id="circle46671" />
        <circle
           cx="21.884001"
           cy="51.380001"
           r="1.609"
           id="circle46673" />
        <circle
           cx="24.08"
           cy="57.41"
           r="1.609"
           id="circle46675" />
        <path
           d="m 19.21,55.53 c -0.26,-0.713 -0.227,-1.592 -1.03,-1.349 -1.125,0.339 -2.413,0.578 -3.235,-0.28 -0.301,-0.313 -0.859,-0.284 -1.027,0.155 -0.24,0.627 0.434,1.342 0.928,1.614 1.305,0.723 3.047,0.329 4.364,-0.14 m -4.076,-1.335 c 0.028,0.049 0.011,0.018 0,0"
           id="path46677" />
        <path
           d="m 17.01,49.49 c -0.106,-0.293 -0.213,-0.586 -0.32,-0.88 -0.211,-0.581 -0.054,-0.668 -0.711,-0.47 -1.123,0.34 -2.413,0.58 -3.236,-0.279 -0.301,-0.314 -0.859,-0.283 -1.026,0.156 -0.239,0.626 0.434,1.342 0.928,1.614 1.305,0.721 3.049,0.329 4.365,-0.141 m -4.076,-1.335 c 0.032,0.048 0.008,0.014 0,0"
           id="path46679" />
        <path
           d="m 14.813,43.46 c -0.26,-0.713 -0.228,-1.593 -1.031,-1.35 -1.127,0.341 -2.41,0.578 -3.235,-0.28 -0.301,-0.313 -0.859,-0.282 -1.027,0.156 -0.24,0.626 0.435,1.343 0.928,1.615 1.305,0.722 3.05,0.327 4.365,-0.141 m -4.077,-1.335 c 0.027,0.047 0.012,0.018 0,0"
           id="path46681" />
        <path
           d="m 21.403,61.56 c -0.107,-0.293 -0.214,-0.587 -0.32,-0.88 -0.212,-0.581 -0.054,-0.669 -0.711,-0.471 -1.124,0.34 -2.412,0.58 -3.235,-0.279 -0.301,-0.313 -0.859,-0.282 -1.026,0.156 -0.239,0.627 0.435,1.343 0.928,1.615 1.305,0.722 3.048,0.329 4.364,-0.141 m -4.077,-1.335 c 0.042,0.067 0.003,0 0,0"
           id="path46683" />
      </g>
      <g
         fill="#94989b"
         id="g46695">
        <path
           d="m 21.355,51.57 c -0.547,-1.363 -5.942,0.844 -6.342,2.364 0.028,-0.092 0.031,-0.079 0.01,0.037 0.008,-0.032 0.006,-0.063 -0.006,-0.095 0.398,1.213 -1.369,1.263 -1.299,-0.283 0.08,-1.747 2.169,-2.812 3.571,-3.331 1.306,-0.484 3.066,-0.858 4.366,-0.142 1.855,1.026 0.23,2.773 -0.3,1.45"
           id="path46687" />
        <path
           d="m 19.16,45.536 c -0.533,-1.355 -5.949,0.835 -6.341,2.363 0.027,-0.092 0.03,-0.08 0.009,0.037 0.009,-0.031 0.008,-0.063 -0.005,-0.094 0.397,1.212 -1.369,1.261 -1.299,-0.283 0.079,-1.75 2.169,-2.81 3.571,-3.332 1.305,-0.484 3.066,-0.858 4.365,-0.142 1.856,1.024 0.23,2.772 -0.3,1.451"
           id="path46689" />
        <path
           d="m 16.962,39.5 c -0.543,-1.354 -5.948,0.832 -6.341,2.363 0.027,-0.091 0.03,-0.078 0.009,0.037 0.009,-0.031 0.007,-0.063 -0.006,-0.093 0.398,1.212 -1.369,1.262 -1.299,-0.283 0.08,-1.749 2.169,-2.812 3.571,-3.332 1.305,-0.485 3.067,-0.858 4.366,-0.142 1.855,1.024 0.23,2.773 -0.3,1.45"
           id="path46691" />
        <path
           d="m 23.552,57.61 c -0.543,-1.365 -5.94,0.846 -6.341,2.363 0.027,-0.092 0.03,-0.079 0.009,0.037 0.009,-0.031 0.007,-0.063 -0.006,-0.094 0.398,1.211 -1.369,1.263 -1.298,-0.283 0.08,-1.749 2.17,-2.81 3.572,-3.332 1.305,-0.484 3.067,-0.857 4.365,-0.141 1.855,1.025 0.228,2.772 -0.301,1.45"
           id="path46693" />
      </g>
      <g
         fill="#d0d0d0"
         id="g46705">
        <path
           d="m 17.647,51.24 c -0.831,0.311 -1.627,0.72 -2.311,1.326 -0.306,0.271 -0.936,0.86 -0.738,1.46 0.097,0.295 -0.262,0.427 -0.358,0.131 -0.242,-0.737 0.221,-1.343 0.599,-1.755 0.72,-0.783 1.697,-1.263 2.644,-1.613 0.23,-0.086 0.395,0.366 0.164,0.451"
           id="path46697" />
        <path
           d="m 15.45,45.21 c -0.83,0.309 -1.627,0.72 -2.31,1.326 -0.306,0.27 -0.936,0.859 -0.738,1.461 0.097,0.294 -0.262,0.426 -0.358,0.131 -0.242,-0.738 0.221,-1.344 0.599,-1.756 0.719,-0.783 1.696,-1.264 2.644,-1.615 0.23,-0.084 0.395,0.368 0.163,0.453"
           id="path46699" />
        <path
           d="m 13.254,39.17 c -0.831,0.308 -1.627,0.72 -2.311,1.323 -0.305,0.272 -0.935,0.861 -0.737,1.463 0.097,0.293 -0.262,0.426 -0.359,0.13 -0.242,-0.737 0.221,-1.343 0.599,-1.755 0.72,-0.783 1.697,-1.263 2.645,-1.613 0.229,-0.086 0.393,0.365 0.163,0.452"
           id="path46701" />
        <path
           d="m 19.844,57.28 c -0.831,0.31 -1.627,0.721 -2.31,1.326 -0.306,0.271 -0.936,0.86 -0.738,1.461 0.097,0.293 -0.262,0.426 -0.359,0.13 -0.241,-0.736 0.222,-1.343 0.6,-1.755 0.719,-0.783 1.696,-1.263 2.644,-1.613 0.229,-0.087 0.393,0.366 0.163,0.451"
           id="path46703" />
      </g>
      <path
         fill="#ffffff"
         d="m 20.848898,21.795742 17.13449,-6.237852 2.433357,6.684086 -17.13449,6.237852 z"
         id="path46707"
         style="stroke-width:1.00003" />
      <path
         fill="#3e4347"
         d="m 38.03,19.265 c -1.573,1.128 -3.673,1.339 -5.174,2.595 -1.129,0.944 -0.994,3.656 -2.199,0.925 -0.172,0.222 -0.368,0.421 -0.589,0.597 -0.181,-0.767 0.023,-1.569 -0.124,-2.35 -1.901,0.848 -2.726,3.104 -3.443,4.893 0.048,-1.677 0.858,-3.604 -0.012,-5.192 -1.78,1.013 -2.885,3.166 -3.203,5.133 0.491,-1.771 1.426,-3.811 3.107,-4.812 0.759,1.653 -0.078,3.687 0.007,5.42 0.607,-1.809 1.539,-4.258 3.398,-5.146 0.112,0.835 -0.127,1.596 0.124,2.43 0.262,-0.141 0.491,-0.327 0.688,-0.561 1.232,2.669 1.38,-0.247 2.401,-1.157 1.442,-1.287 3.584,-1.561 5.02,-2.775"
         id="path46709" />
    </symbol>
    <symbol
       viewBox="0 0 64 64"
       id="emoji-1f4d7">
      <title
         id="title46966">1f4d7</title>
      <path
         fill="#547725"
         d="m 54.976,35.15 7.527,7.439 -33.29,15.79 c 0,0 -4.406,2.02 -6.482,-1.204 -8.214,-12.73 32.25,-22.02 32.25,-22.02"
         id="path46968" />
      <path
         fill="#d9e3e8"
         d="m 28.37,49.13 c 0,0 -6.373,2.238 -5.205,6.467 1.215,4.393 6.281,1.722 6.281,1.722 L 61.069,42.591 c 0,0 -1.776,-4.664 1.434,-7.838 L 28.373,49.13"
         id="path46970" />
      <path
         fill="#83bf4f"
         d="M 33.732,5 63.999,34.524 28.21,48.53 5.234,12.655 Z"
         id="path46972" />
      <path
         fill="#ffffff"
         d="m 34.616,11.742 5.827,6.175 -21.75,7.755 -5.136,-7.867 z"
         id="path46974" />
      <g
         fill="#94989b"
         id="g46982">
        <path
           d="M 61.05,38.02 39.873,46.626 60.65,37.1 Z"
           id="path46976" />
        <path
           d="M 60.724,40.559 38.22,49.856 60.32,39.643 Z"
           id="path46978" />
        <path
           d="M 60.932,42.05 32.2,54.45 60.52,41.13 Z"
           id="path46980" />
      </g>
      <path
         fill="#699635"
         d="m 22.729,57.17 c -3.492,-7.317 5.482,-8.644 5.482,-8.644 L 5.234,12.651 c 0,0 -5.234,-0.143 -5.234,5.27 0,2.233 1.019,3.897 1.019,3.897 l 21.71,35.35"
         id="path46984" />
    </symbol>
    <symbol
       viewBox="0 0 64 64"
       id="emoji-1f4cb">
      <title
         id="title46440">1f4cb</title>
      <path
         fill="#d3976e"
         d="m 35.695,62.21 c -1.364,2.084 -4.447,2.382 -6.84,0.696 L 1.825,43.876 C -0.024,42.574 -0.551,40.086 0.619,38.299 L 24.396,1.979 c 1.171,-1.788 3.792,-2.499 5.889,-1.576 l 30.648,13.5 c 2.715,1.195 3.85,3.872 2.485,5.956 l -27.725,42.35"
         id="path46442" />
      <path
         fill="#ffffff"
         d="M 31.394,59.752 3.535,40.705 28.04,3.274 59.09,17.451 Z"
         id="path46444" />
      <path
         fill="#94989b"
         d="m 49.03,14.791 c -0.391,0.597 -1.312,0.797 -2.055,0.449 L 35.255,9.737 C 34.581,9.421 34.338,8.71 34.708,8.145 l 1.838,-2.809 c 0.37,-0.564 1.219,-0.777 1.9,-0.475 l 11.873,5.271 c 0.751,0.333 1.047,1.089 0.656,1.687 l -1.945,2.972"
         id="path46446" />
      <path
         fill="#333333"
         d="M 46.788,11.143 39.238,7.716 41.102,4.869 C 41.476,4.298 42.345,4.08 43.048,4.386 l 5.02,2.179 c 0.734,0.319 1.02,1.057 0.636,1.646 l -1.92,2.932"
         id="path46448" />
      <g
         fill="#83bf4f"
         id="g46454">
        <path
           d="M 47.34,26.576 31.665,18.536 32.488,17.279 48.22,25.24 Z"
           id="path46450" />
        <path
           d="m 26.723,17.713 c -0.173,0.097 -0.363,0.03 -0.424,-0.147 l -0.964,-2.84 c -0.06,-0.173 0.057,-0.351 0.256,-0.392 l 0.366,-0.077 c 0.202,-0.042 0.415,0.067 0.476,0.241 l 0.509,1.486 c 0.062,0.177 0.252,0.242 0.424,0.144 l 2.905,-1.636 c 0.175,-0.098 0.422,-0.053 0.55,0.1 l 0.233,0.279 c 0.129,0.154 0.089,0.361 -0.085,0.459 l -4.246,2.383"
           id="path46452" />
      </g>
      <g
         fill="#b0bdc6"
         id="g46468">
        <path
           d="M 42.22,34.407 26.849,25.892 27.672,24.635 43.09,33.07 Z"
           id="path46456" />
        <path
           d="m 23.906,26.19 -4.536,-2.55 2.617,-4 4.588,2.47 z"
           id="path46458" />
        <path
           d="m 37.09,42.24 -15.06,-8.99 0.827,-1.26 15.11,8.91 z"
           id="path46460" />
        <path
           d="m 19.13,33.483 -4.442,-2.692 2.618,-3.999 4.496,2.613 z"
           id="path46462" />
        <path
           d="M 31.962,50.07 17.219,40.603 18.04,39.35 32.838,48.731 Z"
           id="path46464" />
        <path
           d="m 14.357,40.776 -4.347,-2.834 2.615,-3.998 4.405,2.754 z"
           id="path46466" />
      </g>
    </symbol>
  </defs>
  <g
     inkscape:label="Layer 1"
     inkscape:groupmode="layer"
     id="layer1">
    <use
       xlink:href="#emoji-1f4dd"
       width="64"
       height="64"
       id="use99101"
       transform="matrix(0.82677023,0,0,0.82678126,0.00413386,0.00266614)" />
  </g>
</svg>
